<svg width="23" height="23" viewBox="0 0 23 23" fill="none" xmlns="http://www.w3.org/2000/svg">
<rect width="23" height="23" rx="11.5" fill="#EBEAEB"/>
<path d="M14.4291 17.3813L14.2196 18.238C13.5908 18.4862 13.0885 18.6751 12.7145 18.8049C12.3401 18.9352 11.9051 19 11.4094 19C10.6483 19 10.0562 18.8135 9.63394 18.4432C9.21167 18.0713 9.00048 17.6001 9.00048 17.0285C9.00048 16.8072 9.0158 16.5796 9.04766 16.3477C9.07979 16.1155 9.13088 15.8541 9.20079 15.5618L9.98657 12.7806C10.0565 12.5143 10.1159 12.2619 10.1635 12.0233C10.2117 11.7861 10.235 11.568 10.235 11.3715C10.235 11.0164 10.1615 10.7679 10.0151 10.6282C9.86866 10.489 9.58931 10.4183 9.17457 10.4183C8.97144 10.4183 8.76266 10.4508 8.54984 10.5137C8.33609 10.5769 8.15339 10.6379 8 10.6947L8.21012 9.83722C8.72488 9.62764 9.21692 9.44817 9.68758 9.29921C10.1582 9.14985 10.603 9.07511 11.0236 9.07511C11.7795 9.07511 12.3629 9.2578 12.7725 9.6232C13.1821 9.98887 13.3869 10.4629 13.3869 11.047C13.3869 11.1679 13.3734 11.3808 13.3445 11.6852C13.3163 11.9902 13.2637 12.2697 13.1871 12.5239L12.4047 15.294C12.3405 15.5165 12.2829 15.7708 12.2327 16.0571C12.181 16.3414 12.1562 16.5586 12.1562 16.7044C12.1562 17.0722 12.2382 17.3233 12.4027 17.4568C12.5683 17.5903 12.8536 17.6567 13.2587 17.6567C13.449 17.6567 13.6654 17.623 13.9059 17.5567C14.1458 17.4904 14.3207 17.4322 14.4291 17.3813ZM14.6276 5.75171C14.6276 6.23433 14.4457 6.64651 14.0802 6.98543C13.7156 7.32555 13.2762 7.49575 12.7623 7.49575C12.2467 7.49575 11.8063 7.32555 11.4375 6.98543C11.0694 6.64638 10.885 6.23433 10.885 5.75171C10.885 5.27002 11.0694 4.85717 11.4375 4.51395C11.8056 4.17127 12.2468 4 12.7623 4C13.2761 4 13.7156 4.17168 14.0802 4.51395C14.446 4.85717 14.6276 5.27015 14.6276 5.75171Z" fill="black"/>
</svg>
