<svg width="24" height="19" viewBox="0 0 24 19" fill="none" xmlns="http://www.w3.org/2000/svg">
<path d="M21.7969 0.5C22.6253 0.5 23.2969 1.17157 23.2969 2C23.2969 2.82843 22.6253 3.5 21.7969 3.5V0.5ZM6.79688 3.5C5.96845 3.5 5.29688 2.82843 5.29688 2C5.29688 1.17157 5.96845 0.5 6.79688 0.5V3.5ZM21.7969 3.5H6.79688V0.5H21.7969V3.5Z" fill="white"/>
<path d="M17.2988 8C18.1273 8 18.7988 8.67157 18.7988 9.5C18.7988 10.3284 18.1273 11 17.2988 11V8ZM2.29883 11C1.4704 11 0.798828 10.3284 0.798828 9.5C0.798828 8.67157 1.4704 8 2.29883 8V11ZM17.2988 11H2.29883V8H17.2988V11Z" fill="white"/>
<path d="M21.7969 15.5C22.6253 15.5 23.2969 16.1716 23.2969 17C23.2969 17.8284 22.6253 18.5 21.7969 18.5V15.5ZM6.79687 18.5C5.96845 18.5 5.29688 17.8284 5.29688 17C5.29688 16.1716 5.96845 15.5 6.79687 15.5V18.5ZM21.7969 18.5H6.79687V15.5H21.7969V18.5Z" fill="white"/>
</svg>
