<svg width="110" height="37" viewBox="0 0 110 37" fill="none" xmlns="http://www.w3.org/2000/svg">
<path d="M106.398 6.79686L107.415 8.31642H106.696L105.706 6.82966H105.096V8.31642H104.496V4.49019H106.063C106.434 4.49019 106.735 4.60133 106.966 4.82362C107.2 5.04226 107.317 5.32103 107.317 5.65992C107.317 5.94051 107.234 6.18466 107.069 6.39237C106.903 6.60008 106.679 6.73491 106.398 6.79686ZM106.063 5.03133H105.096V6.27759H106.063C106.251 6.27759 106.404 6.21928 106.523 6.10267C106.642 5.98242 106.701 5.83302 106.701 5.65446C106.701 5.4759 106.642 5.32832 106.523 5.21171C106.404 5.09145 106.251 5.03133 106.063 5.03133Z" fill="white"/>
<path fill-rule="evenodd" clip-rule="evenodd" d="M105.665 9.485C107.29 9.485 108.607 8.15324 108.607 6.51043C108.607 4.86762 107.29 3.53586 105.665 3.53586C104.04 3.53586 102.723 4.86762 102.723 6.51043C102.723 8.15324 104.04 9.485 105.665 9.485ZM105.665 10.1224C107.638 10.1224 109.237 8.50527 109.237 6.51043C109.237 4.51559 107.638 2.89845 105.665 2.89845C103.692 2.89845 102.093 4.51559 102.093 6.51043C102.093 8.50527 103.692 10.1224 105.665 10.1224Z" fill="white"/>
<path d="M55.6612 20.9468V4.93811H59.8545V22.2048H51.7392L48.2612 6.19611V22.2048H44.0679V4.93811H52.1832L55.6612 20.9468Z" fill="white"/>
<path d="M66.5203 22.2048H62.327V4.93811H66.5203V22.2048Z" fill="white"/>
<path d="M84.8114 4.93811L78.2501 16.2354V22.2048H74.0567V16.2354L67.4954 4.93811H72.4287L76.2767 12.0421L80.1247 4.93811H84.8114Z" fill="white"/>
<path d="M86.4411 19.8861C84.698 18.1759 83.8265 16.071 83.8265 13.5714C83.8265 11.0719 84.698 8.967 86.4411 7.25678C88.2007 5.54655 90.3714 4.69144 92.9531 4.69144C95.5349 4.69144 97.6974 5.54655 99.4405 7.25678C101.2 8.967 102.08 11.0719 102.08 13.5714C102.08 16.071 101.2 18.1759 99.4405 19.8861C97.6974 21.5963 95.5349 22.4514 92.9531 22.4514C90.3714 22.4514 88.2007 21.5963 86.4411 19.8861ZM89.5491 9.99478C88.6283 10.965 88.1678 12.1572 88.1678 13.5714C88.1678 14.9857 88.6283 16.1779 89.5491 17.1481C90.47 18.1183 91.6047 18.6034 92.9531 18.6034C94.3016 18.6034 95.4363 18.1183 96.3572 17.1481C97.278 16.1779 97.7385 14.9857 97.7385 13.5714C97.7385 12.1572 97.278 10.965 96.3572 9.99478C95.4363 9.02455 94.3016 8.53944 92.9531 8.53944C91.6047 8.53944 90.47 9.02455 89.5491 9.99478Z" fill="white"/>
<path fill-rule="evenodd" clip-rule="evenodd" d="M12.1666 0.146412C12.7111 -0.149008 13.3898 0.0150184 13.7407 0.526802L21.5041 11.8505V1.2162C21.5041 0.787826 21.7287 0.391048 22.0952 0.171679C22.4618 -0.0476893 22.9163 -0.0572875 23.2917 0.146412L34.8229 6.403C35.2144 6.6154 35.4583 7.02612 35.4583 7.47279V29.3708C35.4583 29.813 35.2193 30.2203 34.834 30.4346L23.3028 36.8476C22.7792 37.1387 22.1222 37.0025 21.7565 36.5268L12.8634 24.9599V35.7838C12.8634 36.2239 12.6266 36.6296 12.2442 36.8447C11.8618 37.0598 11.3935 37.0508 11.0195 36.8211L0.579142 30.4081C0.219372 30.1871 0 29.7942 0 29.3708V7.47279C0 7.02612 0.243952 6.6154 0.635414 6.403L12.1666 0.146412ZM10.4404 21.8003L2.42301 11.1101V28.6893L10.4404 33.614V21.8003ZM3.02623 7.87052L12.0093 19.8483L20.9324 15.3069L12.3616 2.80537L3.02623 7.87052ZM21.5041 17.7428L13.5053 21.8139L21.5041 32.2176V17.7428ZM23.9271 33.7198L32.3651 29.0271L23.9271 19.0694V33.7198ZM23.9271 15.3155L33.0353 26.0642V8.19781L23.9271 3.2559V15.3155Z" fill="white"/>
<path d="M47.201 29.1979H51.143C51.1946 29.9064 51.0657 30.5506 50.7566 31.1303C50.4538 31.71 50.0319 32.1576 49.4909 32.4732C48.9562 32.7889 48.3701 32.9467 47.7324 32.9467C46.7405 32.9467 45.9063 32.6117 45.23 31.9418C44.5601 31.272 44.2252 30.4475 44.2252 29.4684C44.2252 28.4894 44.5601 27.6649 45.23 26.995C45.9063 26.3251 46.7405 25.9902 47.7324 25.9902C48.4474 25.9902 49.0786 26.177 49.6261 26.5506C50.1736 26.9177 50.573 27.3815 50.8242 27.9419L50.1382 28.2317C49.9256 27.7744 49.6036 27.404 49.172 27.1206C48.7469 26.8308 48.267 26.6858 47.7324 26.6858C46.9659 26.6858 46.3186 26.9564 45.7904 27.4974C45.2622 28.032 44.9981 28.689 44.9981 29.4684C44.9981 30.2478 45.2622 30.908 45.7904 31.4491C46.3186 31.9837 46.9659 32.251 47.7324 32.251C48.4474 32.251 49.0464 32.0224 49.5295 31.565C50.0126 31.1013 50.2799 30.5409 50.3314 29.8839H47.201V29.1979Z" fill="white"/>
<path d="M53.0121 27.9612V29.2752C53.1796 28.7148 53.4372 28.3251 53.7851 28.1061C54.1393 27.8871 54.5451 27.8195 55.0025 27.9032V28.6085C54.455 28.4862 53.9847 28.5699 53.5918 28.8597C53.2054 29.1432 53.0121 29.5425 53.0121 30.0578V32.8501H52.2875V27.9612H53.0121Z" fill="white"/>
<path d="M55.8856 32.222C55.3961 31.7325 55.1513 31.127 55.1513 30.4056C55.1513 29.6842 55.3961 29.082 55.8856 28.5989C56.3816 28.1093 56.9935 27.8646 57.7213 27.8646C58.4492 27.8646 59.0579 28.1093 59.5474 28.5989C60.0434 29.082 60.2914 29.6842 60.2914 30.4056C60.2914 31.127 60.0434 31.7325 59.5474 32.222C59.0579 32.7051 58.4492 32.9467 57.7213 32.9467C56.9935 32.9467 56.3816 32.7051 55.8856 32.222ZM56.417 29.082C56.0692 29.4362 55.8953 29.8774 55.8953 30.4056C55.8953 30.9338 56.0692 31.3782 56.417 31.739C56.7713 32.0932 57.206 32.2703 57.7213 32.2703C58.2431 32.2703 58.6779 32.0932 59.0257 31.739C59.3735 31.3847 59.5474 30.9402 59.5474 30.4056C59.5474 29.871 59.3735 29.4266 59.0257 29.0723C58.6779 28.718 58.2431 28.5409 57.7213 28.5409C57.206 28.5409 56.7713 28.7213 56.417 29.082Z" fill="white"/>
<path d="M61.2405 30.8501V27.9612H61.9651V30.8501C61.9651 31.2687 62.1004 31.6101 62.3709 31.8742C62.6415 32.1383 62.9828 32.2703 63.3951 32.2703C63.8073 32.2703 64.1487 32.1383 64.4192 31.8742C64.6897 31.6101 64.825 31.2687 64.825 30.8501V27.9612H65.5496V30.8501C65.5496 31.4684 65.3467 31.9741 64.9409 32.367C64.5352 32.7534 64.0199 32.9467 63.3951 32.9467C62.7703 32.9467 62.255 32.7534 61.8492 32.367C61.4434 31.9741 61.2405 31.4684 61.2405 30.8501Z" fill="white"/>
<path d="M69.5538 27.8646C70.2172 27.8646 70.7679 28.1093 71.2059 28.5989C71.6504 29.082 71.8726 29.6842 71.8726 30.4056C71.8726 31.1335 71.6504 31.7389 71.2059 32.222C70.7679 32.7051 70.2172 32.9467 69.5538 32.9467C69.0707 32.9467 68.6423 32.8082 68.2688 32.5312C67.9016 32.2478 67.6375 31.8742 67.4765 31.4104V34.7824H66.7519V27.9612H67.4765V29.4105C67.6375 28.9403 67.9016 28.5667 68.2688 28.2897C68.6423 28.0063 69.0707 27.8646 69.5538 27.8646ZM69.3509 32.2703C69.8533 32.2703 70.2752 32.0932 70.6166 31.739C70.958 31.3782 71.1286 30.9338 71.1286 30.4056C71.1286 29.8774 70.958 29.4362 70.6166 29.082C70.2752 28.7213 69.8533 28.5409 69.3509 28.5409C68.8098 28.5409 68.3622 28.718 68.0079 29.0723C67.6536 29.4266 67.4765 29.871 67.4765 30.4056C67.4765 30.9402 67.6536 31.3847 68.0079 31.739C68.3622 32.0932 68.8098 32.2703 69.3509 32.2703Z" fill="white"/>
</svg>
