<svg width="166" height="56" viewBox="0 0 166 56" fill="none" xmlns="http://www.w3.org/2000/svg">
<path d="M160.85 10.2753L162.386 12.5725H161.3L159.804 10.3249H158.881V12.5725H157.974V6.78815H160.343C160.905 6.78815 161.359 6.95617 161.708 7.29221C162.062 7.62275 162.239 8.04418 162.239 8.55652C162.239 8.98071 162.114 9.34981 161.863 9.66382C161.613 9.97783 161.275 10.1817 160.85 10.2753ZM160.343 7.60622H158.881V9.49028H160.343C160.627 9.49028 160.858 9.40214 161.038 9.22585C161.218 9.04406 161.308 8.81819 161.308 8.54825C161.308 8.27832 161.218 8.0552 161.038 7.87892C160.858 7.69712 160.627 7.60622 160.343 7.60622Z" fill="white"/>
<path fill-rule="evenodd" clip-rule="evenodd" d="M159.741 14.3392C162.197 14.3392 164.189 12.3259 164.189 9.8423C164.189 7.35874 162.197 5.34542 159.741 5.34542C157.285 5.34542 155.294 7.35874 155.294 9.8423C155.294 12.3259 157.285 14.3392 159.741 14.3392ZM159.741 15.3028C162.724 15.3028 165.142 12.858 165.142 9.8423C165.142 6.82655 162.724 4.3818 159.741 4.3818C156.759 4.3818 154.341 6.82655 154.341 9.8423C154.341 12.858 156.759 15.3028 159.741 15.3028Z" fill="white"/>
<path d="M84.1471 31.6668V7.4653H90.4864V33.5686H78.2179L72.9599 9.36711V33.5686H66.6206V7.4653H78.8891L84.1471 31.6668Z" fill="white"/>
<path d="M100.564 33.5686H94.2242V7.4653H100.564V33.5686Z" fill="white"/>
<path d="M128.216 7.4653L118.296 24.5443V33.5686H111.957V24.5443L102.038 7.4653H109.496L115.313 18.2049L121.13 7.4653H128.216Z" fill="white"/>
<path d="M130.679 30.0633C128.044 27.4778 126.727 24.2957 126.727 20.5169C126.727 16.7382 128.044 13.5561 130.679 10.9706C133.339 8.38513 136.621 7.09239 140.524 7.09239C144.427 7.09239 147.696 8.38513 150.331 10.9706C152.991 13.5561 154.321 16.7382 154.321 20.5169C154.321 24.2957 152.991 27.4778 150.331 30.0633C147.696 32.6487 144.427 33.9415 140.524 33.9415C136.621 33.9415 133.339 32.6487 130.679 30.0633ZM135.378 15.1098C133.986 16.5766 133.29 18.379 133.29 20.5169C133.29 22.6549 133.986 24.4573 135.378 25.924C136.77 27.3908 138.485 28.1242 140.524 28.1242C142.563 28.1242 144.278 27.3908 145.67 25.924C147.062 24.4573 147.758 22.6549 147.758 20.5169C147.758 18.379 147.062 16.5766 145.67 15.1098C144.278 13.6431 142.563 12.9097 140.524 12.9097C138.485 12.9097 136.77 13.6431 135.378 15.1098Z" fill="white"/>
<path fill-rule="evenodd" clip-rule="evenodd" d="M18.3931 0.221342C19.2163 -0.225266 20.2424 0.0227043 20.7728 0.796406L32.5093 17.9153V1.83862C32.5093 1.19101 32.8488 0.591176 33.403 0.25954C33.9571 -0.0720953 34.6442 -0.0866057 35.2118 0.221342L52.6443 9.67988C53.2361 10.001 53.6049 10.6219 53.6049 11.2972V44.402C53.6049 45.0704 53.2435 45.6862 52.661 46.0101L35.2285 55.7051C34.437 56.1453 33.4438 55.9393 32.8909 55.2202L19.4466 37.7337V54.097C19.4466 54.7622 19.0886 55.3755 18.5105 55.7008C17.9324 56.026 17.2243 56.0123 16.6591 55.6651L0.875532 45.9701C0.33164 45.6361 0 45.0421 0 44.402V11.2972C0 10.6219 0.3688 10.001 0.960602 9.67988L18.3931 0.221342ZM15.7835 32.957L3.66304 16.796V43.3717L15.7835 50.8167V32.957ZM4.57497 11.8984L18.1554 30.0061L31.6451 23.1405L18.6879 4.24108L4.57497 11.8984ZM32.5093 26.8231L20.4169 32.9776L32.5093 48.7057V26.8231ZM36.1724 50.9767L48.9286 43.8824L36.1724 28.8286V50.9767ZM36.1724 23.1536L49.9419 39.4031V12.3932L36.1724 4.92219V23.1536Z" fill="white"/>
<path d="M71.3572 44.1406H77.3166C77.3945 45.2117 77.1998 46.1855 76.7324 47.0619C76.2747 47.9383 75.6369 48.615 74.8189 49.0922C74.0107 49.5693 73.1246 49.8079 72.1606 49.8079C70.661 49.8079 69.3999 49.3015 68.3775 48.2888C67.3648 47.2761 66.8584 46.0297 66.8584 44.5496C66.8584 43.0694 67.3648 41.823 68.3775 40.8103C69.3999 39.7976 70.661 39.2913 72.1606 39.2913C73.2414 39.2913 74.1957 39.5736 75.0234 40.1384C75.8511 40.6935 76.4548 41.3946 76.8346 42.2417L75.7976 42.6799C75.4762 41.9886 74.9893 41.4287 74.3369 41.0002C73.6942 40.562 72.9688 40.3429 72.1606 40.3429C71.0018 40.3429 70.0231 40.7519 69.2247 41.5699C68.4262 42.3781 68.0269 43.3713 68.0269 44.5496C68.0269 45.7278 68.4262 46.7259 69.2247 47.5439C70.0231 48.3521 71.0018 48.7562 72.1606 48.7562C73.2414 48.7562 74.147 48.4105 74.8773 47.7192C75.6077 47.018 76.0118 46.1709 76.0897 45.1776H71.3572V44.1406Z" fill="white"/>
<path d="M80.1423 42.271V44.2574C80.3955 43.4103 80.785 42.8211 81.3108 42.4901C81.8464 42.159 82.4598 42.0567 83.1512 42.1833V43.2496C82.3235 43.0646 81.6127 43.1912 81.0187 43.6294C80.4344 44.0578 80.1423 44.6615 80.1423 45.4406V49.6618H79.0468V42.271H80.1423Z" fill="white"/>
<path d="M84.4863 48.7124C83.7463 47.9723 83.3762 47.057 83.3762 45.9664C83.3762 44.8758 83.7463 43.9653 84.4863 43.235C85.2361 42.4949 86.1612 42.1249 87.2615 42.1249C88.3619 42.1249 89.2821 42.4949 90.0221 43.235C90.7719 43.9653 91.1468 44.8758 91.1468 45.9664C91.1468 47.057 90.7719 47.9723 90.0221 48.7124C89.2821 49.4427 88.3619 49.8079 87.2615 49.8079C86.1612 49.8079 85.2361 49.4427 84.4863 48.7124ZM85.2897 43.9653C84.7638 44.5009 84.5009 45.1679 84.5009 45.9664C84.5009 46.7649 84.7638 47.4368 85.2897 47.9821C85.8252 48.5176 86.4825 48.7854 87.2615 48.7854C88.0503 48.7854 88.7076 48.5176 89.2334 47.9821C89.7592 47.4465 90.0221 46.7746 90.0221 45.9664C90.0221 45.1582 89.7592 44.4863 89.2334 43.9507C88.7076 43.4151 88.0503 43.1474 87.2615 43.1474C86.4825 43.1474 85.8252 43.42 85.2897 43.9653Z" fill="white"/>
<path d="M92.5817 46.6383V42.271H93.6772V46.6383C93.6772 47.2712 93.8817 47.7873 94.2906 48.1866C94.6996 48.5858 95.2157 48.7854 95.8389 48.7854C96.4621 48.7854 96.9782 48.5858 97.3872 48.1866C97.7962 47.7873 98.0007 47.2712 98.0007 46.6383V42.271H99.0962V46.6383C99.0962 47.5731 98.7894 48.3375 98.1759 48.9315C97.5625 49.5157 96.7835 49.8079 95.8389 49.8079C94.8944 49.8079 94.1154 49.5157 93.5019 48.9315C92.8884 48.3375 92.5817 47.5731 92.5817 46.6383Z" fill="white"/>
<path d="M105.149 42.1249C106.152 42.1249 106.985 42.4949 107.647 43.235C108.319 43.9653 108.655 44.8758 108.655 45.9664C108.655 47.0667 108.319 47.9821 107.647 48.7124C106.985 49.4427 106.152 49.8079 105.149 49.8079C104.419 49.8079 103.772 49.5985 103.207 49.1798C102.652 48.7513 102.253 48.1866 102.009 47.4855V52.5831H100.914V42.271H102.009V44.4619C102.253 43.7511 102.652 43.1863 103.207 42.7676C103.772 42.3391 104.419 42.1249 105.149 42.1249ZM104.843 48.7854C105.602 48.7854 106.24 48.5176 106.756 47.9821C107.272 47.4368 107.53 46.7649 107.53 45.9664C107.53 45.1679 107.272 44.5009 106.756 43.9653C106.24 43.42 105.602 43.1474 104.843 43.1474C104.025 43.1474 103.348 43.4151 102.812 43.9507C102.277 44.4863 102.009 45.1582 102.009 45.9664C102.009 46.7746 102.277 47.4465 102.812 47.9821C103.348 48.5176 104.025 48.7854 104.843 48.7854Z" fill="white"/>
</svg>
