<svg width="49" height="46" viewBox="0 0 49 46" fill="none" xmlns="http://www.w3.org/2000/svg">
<rect width="48.359" height="46" rx="11.7949" fill="#FBAF00"/>
<path d="M32.531 21.7728C29.9087 25.208 26.2937 28.8435 22.7719 31.5319C28.3505 31.9814 32.9804 27.3504 32.531 21.7728Z" fill="#070909"/>
<path d="M34.4153 11.5971C32.931 10.1128 29.8113 11.7297 28.0037 12.8328C28.5616 13.0921 29.0974 13.4004 29.6057 13.7558C30.3061 13.3674 32.7117 12.1645 33.28 12.7325C34.0408 13.4932 31.9519 16.9844 31.3269 17.9335C28.3831 12.8643 21.3223 11.8782 17.0997 16.1006C14.542 18.6582 13.8933 22.2632 14.9135 25.3629C13.3477 27.582 10.8483 31.6684 12.5962 33.4162C17.0013 37.8214 38.8255 16.0073 34.4153 11.5971ZM13.7316 32.2809C12.988 31.5374 14.9689 28.1671 15.6842 27.0824C16.4369 28.3794 17.5263 29.5098 18.93 30.3267C16.1058 32.1799 14.1761 32.7255 13.7316 32.2809Z" fill="#070909"/>
</svg>
