<svg width="23" height="23" viewBox="0 0 23 23" fill="none" xmlns="http://www.w3.org/2000/svg">
<rect width="23" height="23" rx="11.5" fill="#EBEAEB"/>
<path d="M12.6341 16.6428C12.6341 16.1462 12.2315 15.7436 11.7349 15.7436H10.6338C10.3953 15.7436 10.1666 15.8383 9.99796 16.0069C9.82932 16.1756 9.73458 16.4043 9.73458 16.6428C9.73458 17.1394 10.1372 17.542 10.6338 17.542H11.7349C12.2315 17.542 12.6341 17.1394 12.6341 16.6428ZM5.89041 14.3241C6.04061 14.3355 6.22232 14.3421 6.40485 14.3314C6.50209 14.8246 6.74367 15.282 7.10426 15.6426C7.58297 16.1213 8.23223 16.3902 8.90922 16.3902H9.25233C9.2372 16.473 9.22943 16.5575 9.22943 16.6428C9.22943 16.729 9.2372 16.8135 9.2521 16.8954H8.90922C8.09825 16.8954 7.32049 16.5732 6.74706 15.9998C6.28959 15.5423 5.99203 14.9548 5.89041 14.3241ZM5.63346 13.7866C5.23464 13.7193 4.86353 13.5297 4.57382 13.24C4.20641 12.8726 4 12.3742 4 11.8546V10.6607C4 10.1411 4.20641 9.64278 4.57382 9.27537C4.94124 8.90795 5.43957 8.70152 5.95917 8.70152H6.08958C6.29804 6.07036 8.49943 4 11.1844 4C13.8693 4 16.0707 6.07036 16.2791 8.70152H16.4095C16.9291 8.70152 17.4275 8.90795 17.7949 9.27537C18.1623 9.64278 18.3687 10.1411 18.3687 10.6607V11.8546C18.3687 12.3742 18.1623 12.8726 17.7949 13.24C17.4275 13.6074 16.9291 13.8138 16.4095 13.8138H15.8314C15.5916 13.8138 15.3973 13.6194 15.3973 13.3797V9.11094C15.3973 6.78422 13.5111 4.89804 11.1844 4.89804C8.85764 4.89804 6.97146 6.78422 6.97146 9.11094V13.3797C6.97146 13.549 6.87456 13.6957 6.73317 13.7672C6.34398 13.9023 5.74041 13.8046 5.63346 13.7866Z" fill="#070909"/>
</svg>
