<svg width="84" height="84" viewBox="0 0 84 84" fill="none" xmlns="http://www.w3.org/2000/svg">
<circle cx="42" cy="42" r="42" fill="url(#paint0_linear_728_11)"/>
<path fill-rule="evenodd" clip-rule="evenodd" d="M34.8131 16.2052C35.5655 15.7912 36.5035 16.021 36.9884 16.7383L47.7166 32.6085V17.7045C47.7166 17.1041 48.0269 16.5481 48.5335 16.2406C49.04 15.9332 49.6681 15.9197 50.1869 16.2052L66.1219 24.9738C66.6629 25.2715 67 25.8471 67 26.4731V57.1632C67 57.7829 66.6696 58.3537 66.1372 58.654L50.2022 67.6419C49.4786 68.05 48.5708 67.859 48.0654 67.1923L35.776 50.9813V66.1511C35.776 66.7678 35.4488 67.3363 34.9203 67.6378C34.3919 67.9393 33.7447 67.9267 33.228 67.6048L18.8003 58.617C18.3032 58.3073 18 57.7566 18 57.1632V26.4731C18 25.8471 18.3371 25.2715 18.8781 24.9738L34.8131 16.2052ZM32.4276 46.5531L21.3484 31.5708V56.2081L32.4276 63.11V46.5531ZM22.182 27.0305L34.5957 43.8174L46.9266 37.4526L35.0825 19.9317L22.182 27.0305ZM47.7166 40.8666L36.663 46.5722L47.7166 61.153V40.8666ZM51.065 63.2583L62.7254 56.6815L51.065 42.7258V63.2583ZM51.065 37.4647L63.6516 52.529V27.4892L51.065 20.5632V37.4647Z" fill="#FF6FD8"/>
<defs>
<linearGradient id="paint0_linear_728_11" x1="42" y1="0" x2="42" y2="84" gradientUnits="userSpaceOnUse">
<stop stop-color="#FFF2DE"/>
<stop offset="1" stop-color="#FFE1F7"/>
</linearGradient>
</defs>
</svg>
