<svg width="88" height="84" viewBox="0 0 88 84" fill="none" xmlns="http://www.w3.org/2000/svg">
<ellipse cx="43.9086" cy="42" rx="43.9086" ry="42" fill="#FFF2DE"/>
<path fill-rule="evenodd" clip-rule="evenodd" d="M35.6268 15.2174C36.4603 14.7787 37.4995 15.0223 38.0367 15.7823L49.9222 32.5991V16.8062C49.9222 16.17 50.266 15.5807 50.8272 15.255C51.3884 14.9292 52.0842 14.9149 52.659 15.2174L70.313 24.509C70.9123 24.8244 71.2858 25.4344 71.2858 26.0977V58.6183C71.2858 59.2749 70.9198 59.8798 70.3299 60.198L52.6759 69.7218C51.8743 70.1543 50.8685 69.9519 50.3087 69.2455L36.6936 52.0676V68.1421C36.6936 68.7956 36.331 69.3981 35.7456 69.7176C35.1601 70.037 34.4431 70.0237 33.8706 69.6826L17.8867 60.1587C17.3359 59.8305 17 59.247 17 58.6183V26.0977C17 25.4344 17.3735 24.8244 17.9728 24.509L35.6268 15.2174ZM32.984 47.3753L20.7096 31.4995V57.6061L32.984 64.9197V47.3753ZM21.6331 26.6884L35.386 44.4765L49.047 37.732L35.9252 19.1662L21.6331 26.6884ZM49.9222 41.3497L37.6762 47.3955L49.9222 62.846V41.3497ZM53.6318 65.0769L66.5501 58.1078L53.6318 43.3198V65.0769ZM53.6318 37.7449L67.5762 53.7076V27.1745L53.6318 19.8353V37.7449Z" fill="#F39200"/>
</svg>
