<svg width="84" height="84" viewBox="0 0 84 84" fill="none" xmlns="http://www.w3.org/2000/svg">
<circle cx="42" cy="42" r="42" fill="url(#paint0_linear_531_35)"/>
<path fill-rule="evenodd" clip-rule="evenodd" d="M32.4509 17.7659C33.2342 17.3348 34.2107 17.5742 34.7155 18.3209L45.8841 34.8425V19.3267C45.8841 18.7017 46.2071 18.1228 46.7345 17.8027C47.2618 17.4827 47.9157 17.4687 48.4558 17.7659L65.0448 26.8944C65.608 27.2043 65.959 27.8035 65.959 28.4552V60.405C65.959 61.0501 65.615 61.6444 65.0607 61.957L48.4717 71.3138C47.7185 71.7386 46.7733 71.5398 46.2472 70.8458L33.4534 53.9694V69.7618C33.4534 70.4038 33.1127 70.9957 32.5626 71.3096C32.0124 71.6234 31.3387 71.6103 30.8007 71.2752L15.7809 61.9185C15.2633 61.596 14.9478 61.0228 14.9478 60.405V28.4552C14.9478 27.8035 15.2987 27.2043 15.8619 26.8944L32.4509 17.7659ZM29.9676 49.3594L18.4336 33.7622V59.4107L29.9676 66.5959V49.3594ZM19.3014 29.0355L32.2247 46.5114L45.0616 39.8854L32.7314 21.6454L19.3014 29.0355ZM45.8841 43.4395L34.3768 49.3792L45.8841 64.5586V43.4395ZM49.3699 66.7503L61.5089 59.9035L49.3699 45.375V66.7503ZM49.3699 39.898L62.4732 55.5806V29.5131L49.3699 22.3027V39.898Z" fill="url(#paint1_linear_531_35)"/>
<defs>
<linearGradient id="paint0_linear_531_35" x1="42" y1="0" x2="42" y2="84" gradientUnits="userSpaceOnUse">
<stop stop-color="#FFF2DE"/>
<stop offset="1" stop-color="#FFE1F7"/>
</linearGradient>
<linearGradient id="paint1_linear_531_35" x1="24.765" y1="17.5522" x2="26.1362" y2="71.5592" gradientUnits="userSpaceOnUse">
<stop offset="0.203191" stop-color="#FF6FD8"/>
<stop offset="1" stop-color="#F39200"/>
</linearGradient>
</defs>
</svg>
